<svg width="16" height="17" viewBox="0 0 16 17" fill="none" xmlns="http://www.w3.org/2000/svg">
<path d="M14.372 4.03314C14.3315 3.5849 14.1243 3.16815 13.7915 2.86524C13.4586 2.56233 13.0242 2.39528 12.5741 2.39711H10.6385C10.4287 0.850974 9.40397 0 7.68404 0C5.96412 0 4.93935 0.850974 4.7296 2.39711H2.78794C2.33788 2.39528 1.90351 2.56233 1.57064 2.86524C1.23777 3.16815 1.03061 3.5849 0.990112 4.03314L0.00729754 14.8201C-0.0152361 15.0695 0.014553 15.3208 0.0947571 15.5579C0.174961 15.7951 0.303812 16.0129 0.473058 16.1973C0.642303 16.3818 0.848211 16.5289 1.07759 16.6292C1.30698 16.7295 1.55478 16.7808 1.80513 16.7798H13.563C13.8133 16.7808 14.0611 16.7295 14.2905 16.6292C14.5199 16.5289 14.7258 16.3818 14.895 16.1973C15.0643 16.0129 15.1931 15.7951 15.2733 15.5579C15.3535 15.3208 15.3833 15.0695 15.3608 14.8201L14.372 4.03314ZM7.68404 1.19855C8.72079 1.19855 9.26014 1.57011 9.42195 2.39711H5.94614C6.10794 1.57011 6.64729 1.19855 7.68404 1.19855ZM14.0064 15.3835C13.9504 15.4455 13.882 15.4952 13.8056 15.5293C13.7292 15.5633 13.6466 15.581 13.563 15.5812H1.80513C1.7215 15.581 1.63885 15.5633 1.56247 15.5293C1.4861 15.4952 1.41769 15.4455 1.36166 15.3835C1.30562 15.3224 1.26284 15.2505 1.23602 15.1721C1.2092 15.0937 1.19893 15.0106 1.20585 14.928L2.18867 4.14101C2.20217 3.99159 2.27122 3.85268 2.38217 3.75171C2.49313 3.65074 2.63792 3.59506 2.78794 3.59566H12.5801C12.7302 3.59506 12.875 3.65074 12.9859 3.75171C13.0969 3.85268 13.1659 3.99159 13.1794 4.14101L14.1622 14.928C14.1692 15.0106 14.1589 15.0937 14.1321 15.1721C14.1052 15.2505 14.0625 15.3224 14.0064 15.3835Z" fill="url(#paint0_linear_334_86)"/>
<path d="M10.0811 5.39349C9.92218 5.39349 9.76975 5.45663 9.65737 5.56902C9.54498 5.6814 9.48184 5.83383 9.48184 5.99277C9.48184 9.58844 8.12747 9.58844 7.68401 9.58844C7.24054 9.58844 5.88618 9.58844 5.88618 5.99277C5.88618 5.83383 5.82304 5.6814 5.71065 5.56902C5.59827 5.45663 5.44584 5.39349 5.2869 5.39349C5.12796 5.39349 4.97553 5.45663 4.86315 5.56902C4.75076 5.6814 4.68762 5.83383 4.68762 5.99277C4.68762 9.954 6.31766 10.787 7.68401 10.787C9.05036 10.787 10.6804 9.954 10.6804 5.99277C10.6804 5.83383 10.6173 5.6814 10.5049 5.56902C10.3925 5.45663 10.2401 5.39349 10.0811 5.39349Z" fill="url(#paint1_linear_334_86)"/>
<defs>
<linearGradient id="paint0_linear_334_86" x1="9.58854" y1="-1.4873" x2="-2.91627" y2="0.412777" gradientUnits="userSpaceOnUse">
<stop offset="0.279902" stop-color="#C38B34"/>
<stop offset="0.803825" stop-color="#ECC47E"/>
</linearGradient>
<linearGradient id="paint1_linear_334_86" x1="8.42667" y1="4.91543" x2="3.6018" y2="5.80485" gradientUnits="userSpaceOnUse">
<stop offset="0.279902" stop-color="#C38B34"/>
<stop offset="0.803825" stop-color="#ECC47E"/>
</linearGradient>
</defs>
</svg>
