<svg width="9" height="11" viewBox="0 0 9 11" fill="none" xmlns="http://www.w3.org/2000/svg">
<path d="M4.092 0.220001C1.848 0.220001 0 2.024 0 4.312C0 5.984 2.156 8.932 3.432 10.516C3.608 10.692 3.828 10.824 4.092 10.824C4.356 10.824 4.576 10.692 4.752 10.516C6.028 8.932 8.184 6.028 8.184 4.312C8.14 2.024 6.336 0.220001 4.092 0.220001ZM4.092 5.412C3.168 5.412 2.42 4.664 2.42 3.74C2.42 2.816 3.168 2.068 4.092 2.068C5.016 2.068 5.764 2.816 5.764 3.74C5.764 4.664 5.016 5.412 4.092 5.412Z" fill="url(#paint0_linear_20_47)"/>
<defs>
<linearGradient id="paint0_linear_20_47" x1="5.10621" y1="-0.719901" x2="-1.59686" y2="0.138383" gradientUnits="userSpaceOnUse">
<stop offset="0.279902" stop-color="#C38B34"/>
<stop offset="0.803825" stop-color="#ECC47E"/>
</linearGradient>
</defs>
</svg>
