<svg width="18" height="16" viewBox="0 0 18 16" fill="none" xmlns="http://www.w3.org/2000/svg">
<path d="M5.42008 1.47177C6.51967 1.49415 7.59072 1.99069 8.35847 3.30868C8.64375 3.79752 9.35581 3.79752 9.64223 3.30868C10.4102 1.99091 11.4813 1.49438 12.5806 1.47177C13.6802 1.44803 14.8058 1.96175 15.5001 2.7884C16.8398 4.38541 17.0109 7.17627 15.0496 9.13143L9.00024 14.2953L2.95001 9.13143C0.989785 7.17649 1.15981 4.38541 2.50063 2.7884C3.19489 1.96175 4.32049 1.44803 5.42008 1.47177ZM5.45203 0.00115576C3.88071 -0.0320822 2.35571 0.662977 1.35951 1.84869C-0.482947 4.04398 -0.593636 7.69451 1.90268 10.1758C1.91592 10.1892 1.93007 10.2018 1.94445 10.2147L8.51663 15.8224C8.65127 15.937 8.82287 16 9.00035 16C9.17783 16 9.34944 15.937 9.48407 15.8224L16.0574 10.2147C16.0718 10.2018 16.0848 10.1892 16.098 10.1758C18.5943 7.69428 18.4823 4.04398 16.6401 1.84869C15.6452 0.66275 14.1189 -0.0323084 12.5484 0.00115576C11.2457 0.0278366 9.98936 0.745054 9.00024 1.91924C8.01134 0.745054 6.75496 0.0278366 5.45203 0.00115576Z" fill="url(#paint0_linear_22_74)"/>
<defs>
<linearGradient id="paint0_linear_22_74" x1="11.2307" y1="-1.41818" x2="-3.24944" y2="1.28444" gradientUnits="userSpaceOnUse">
<stop offset="0.279902" stop-color="#C38B34"/>
<stop offset="0.803825" stop-color="#ECC47E"/>
</linearGradient>
</defs>
</svg>
