<svg width="82" height="27" viewBox="0 0 82 27" fill="none" xmlns="http://www.w3.org/2000/svg">
<path d="M36.622 3.212V3.432C36.3727 3.43933 36.182 3.46867 36.05 3.52C35.9253 3.564 35.841 3.652 35.797 3.784C35.753 3.90867 35.731 4.10667 35.731 4.378V9.834C35.731 10.098 35.753 10.2997 35.797 10.439C35.841 10.571 35.9217 10.6627 36.039 10.714C36.1637 10.758 36.3433 10.78 36.578 10.78H36.919C36.8897 11.0513 36.8677 11.3153 36.853 11.572C36.8457 11.836 36.842 12.034 36.842 12.166C36.842 12.3053 36.8457 12.4337 36.853 12.551C36.8603 12.6757 36.8677 12.782 36.875 12.87H36.622C36.556 12.4007 36.4533 12.0303 36.314 11.759C36.182 11.4877 35.9987 11.2933 35.764 11.176C35.5367 11.0587 35.2433 11 34.884 11H32.057C31.6977 11 31.4007 11.0587 31.166 11.176C30.9387 11.2933 30.759 11.4877 30.627 11.759C30.495 12.0303 30.3923 12.4007 30.319 12.87H30.066C30.0807 12.782 30.088 12.6757 30.088 12.551C30.0953 12.4337 30.099 12.3053 30.099 12.166C30.099 12.034 30.0917 11.836 30.077 11.572C30.0697 11.3153 30.0513 11.0513 30.022 10.78H33.333C33.5823 10.78 33.7693 10.758 33.894 10.714C34.026 10.6627 34.114 10.571 34.158 10.439C34.202 10.2997 34.224 10.098 34.224 9.834V4.378C34.224 4.10667 34.1983 3.905 34.147 3.773C34.103 3.641 34.0223 3.553 33.905 3.509C33.795 3.45767 33.6337 3.432 33.421 3.432H33.278C33.0873 3.432 32.9407 3.45767 32.838 3.509C32.7353 3.553 32.662 3.64467 32.618 3.784C32.574 3.916 32.541 4.114 32.519 4.378C32.4823 4.796 32.4457 5.247 32.409 5.731C32.3797 6.215 32.3393 6.70633 32.288 7.205C32.2367 7.69633 32.1633 8.16933 32.068 8.624C31.98 9.07133 31.859 9.47467 31.705 9.834C31.551 10.186 31.353 10.4683 31.111 10.681C30.869 10.8863 30.572 10.989 30.22 10.989V10.78C30.5573 10.78 30.8397 10.6553 31.067 10.406C31.2943 10.1493 31.4777 9.80467 31.617 9.372C31.7637 8.93933 31.8773 8.448 31.958 7.898C32.0387 7.34067 32.101 6.76133 32.145 6.16C32.189 5.55867 32.2293 4.96467 32.266 4.378C32.288 4.12133 32.277 3.927 32.233 3.795C32.1963 3.663 32.1083 3.57133 31.969 3.52C31.837 3.46867 31.639 3.43933 31.375 3.432V3.212C31.529 3.21933 31.7123 3.22667 31.925 3.234C32.1377 3.24133 32.332 3.245 32.508 3.245C32.6767 3.245 32.838 3.24133 32.992 3.234C33.1533 3.21933 33.3147 3.212 33.476 3.212C33.7547 3.212 34.0077 3.21933 34.235 3.234C34.4623 3.24133 34.7337 3.245 35.049 3.245C35.225 3.245 35.4083 3.245 35.599 3.245C35.797 3.23767 35.9877 3.234 36.171 3.234C36.3543 3.22667 36.5047 3.21933 36.622 3.212ZM39.9765 5.159C40.4825 5.159 40.9298 5.26167 41.3185 5.467C41.7145 5.665 42.0262 5.984 42.2535 6.424C42.4882 6.864 42.6055 7.44333 42.6055 8.162C42.6055 8.88067 42.4882 9.46 42.2535 9.9C42.0262 10.34 41.7145 10.659 41.3185 10.857C40.9298 11.055 40.4825 11.154 39.9765 11.154C39.4705 11.154 39.0195 11.055 38.6235 10.857C38.2275 10.659 37.9158 10.34 37.6885 9.9C37.4612 9.46 37.3475 8.88067 37.3475 8.162C37.3475 7.44333 37.4612 6.864 37.6885 6.424C37.9158 5.984 38.2275 5.665 38.6235 5.467C39.0195 5.26167 39.4705 5.159 39.9765 5.159ZM39.9765 5.379C39.6318 5.379 39.3495 5.599 39.1295 6.039C38.9168 6.47167 38.8105 7.17933 38.8105 8.162C38.8105 9.14467 38.9168 9.85233 39.1295 10.285C39.3495 10.7177 39.6318 10.934 39.9765 10.934C40.3138 10.934 40.5925 10.7177 40.8125 10.285C41.0325 9.85233 41.1425 9.14467 41.1425 8.162C41.1425 7.17933 41.0325 6.47167 40.8125 6.039C40.5925 5.599 40.3138 5.379 39.9765 5.379ZM46.143 5.159C46.4143 5.159 46.6637 5.192 46.891 5.258C47.1257 5.31667 47.3273 5.401 47.496 5.511C47.672 5.621 47.8113 5.76033 47.914 5.929C48.0167 6.09033 48.068 6.27 48.068 6.468C48.068 6.71 47.9947 6.90433 47.848 7.051C47.7013 7.19767 47.518 7.271 47.298 7.271C47.0707 7.271 46.8837 7.205 46.737 7.073C46.5977 6.941 46.528 6.765 46.528 6.545C46.528 6.33233 46.5903 6.15633 46.715 6.017C46.8397 5.87767 46.99 5.786 47.166 5.742C47.1 5.64667 46.9973 5.56967 46.858 5.511C46.7187 5.445 46.5647 5.412 46.396 5.412C46.176 5.412 45.978 5.47067 45.802 5.588C45.626 5.698 45.472 5.86667 45.34 6.094C45.2153 6.314 45.1163 6.589 45.043 6.919C44.977 7.24167 44.944 7.61567 44.944 8.041C44.944 8.635 45.0137 9.10433 45.153 9.449C45.2997 9.79367 45.4867 10.0393 45.714 10.186C45.9413 10.3253 46.1833 10.395 46.44 10.395C46.594 10.395 46.759 10.3657 46.935 10.307C47.111 10.2483 47.2833 10.1493 47.452 10.01C47.628 9.87067 47.7857 9.67267 47.925 9.416L48.134 9.493C48.0533 9.74967 47.9213 10.0063 47.738 10.263C47.562 10.5197 47.331 10.7323 47.045 10.901C46.759 11.0697 46.4107 11.154 46 11.154C45.5307 11.154 45.1053 11.0477 44.724 10.835C44.3427 10.615 44.0383 10.285 43.811 9.845C43.591 9.405 43.481 8.85867 43.481 8.206C43.481 7.56067 43.5947 7.01433 43.822 6.567C44.0493 6.11233 44.3647 5.764 44.768 5.522C45.1787 5.28 45.637 5.159 46.143 5.159ZM54.4608 5.324C54.4315 5.61733 54.4095 5.89967 54.3948 6.171C54.3875 6.435 54.3838 6.63667 54.3838 6.776C54.3838 6.92267 54.3875 7.062 54.3948 7.194C54.4022 7.31867 54.4095 7.42133 54.4168 7.502H54.1638C54.0905 6.98133 53.9842 6.58167 53.8448 6.303C53.7055 6.017 53.5368 5.82267 53.3388 5.72C53.1482 5.61 52.9355 5.555 52.7008 5.555H52.3158V9.867C52.3158 10.2263 52.4112 10.4683 52.6018 10.593C52.7925 10.7103 53.0565 10.769 53.3938 10.769V11C53.2105 10.9927 52.9575 10.9853 52.6348 10.978C52.3195 10.9633 51.9822 10.956 51.6228 10.956C51.2635 10.956 50.9225 10.9633 50.5998 10.978C50.2772 10.9853 50.0278 10.9927 49.8518 11V10.769C50.1892 10.769 50.4532 10.7177 50.6438 10.615C50.8345 10.505 50.9298 10.2703 50.9298 9.911V5.555H50.4788C50.2368 5.555 50.0242 5.61 49.8408 5.72C49.6575 5.83 49.4998 6.028 49.3678 6.314C49.2432 6.59267 49.1442 6.99233 49.0708 7.513H48.8178C48.8325 7.425 48.8398 7.31867 48.8398 7.194C48.8472 7.062 48.8508 6.92633 48.8508 6.787C48.8508 6.64767 48.8435 6.446 48.8288 6.182C48.8215 5.91067 48.8032 5.62833 48.7738 5.335H49.9068C50.1268 5.335 50.3872 5.34233 50.6878 5.357C50.9958 5.36433 51.3038 5.368 51.6118 5.368C51.9198 5.368 52.2278 5.36067 52.5358 5.346C52.8438 5.33133 53.1078 5.324 53.3278 5.324H54.4608ZM56.5865 11.077C56.2712 11.077 56.0035 11.0183 55.7835 10.901C55.5635 10.7763 55.3985 10.6113 55.2885 10.406C55.1785 10.1933 55.1235 9.95867 55.1235 9.702C55.1235 9.38667 55.1968 9.13 55.3435 8.932C55.4902 8.72667 55.6772 8.56533 55.9045 8.448C56.1392 8.32333 56.3848 8.22067 56.6415 8.14C56.8982 8.052 57.1402 7.97133 57.3675 7.898C57.5948 7.81733 57.7818 7.72567 57.9285 7.623C58.0752 7.52033 58.1485 7.38467 58.1485 7.216V6.413C58.1485 6.17833 58.1118 5.98767 58.0385 5.841C57.9725 5.687 57.8698 5.57333 57.7305 5.5C57.5985 5.41933 57.4298 5.379 57.2245 5.379C57.0705 5.379 56.9092 5.401 56.7405 5.445C56.5718 5.489 56.4325 5.57333 56.3225 5.698C56.5132 5.74933 56.6598 5.84467 56.7625 5.984C56.8725 6.12333 56.9275 6.292 56.9275 6.49C56.9275 6.71733 56.8505 6.897 56.6965 7.029C56.5498 7.15367 56.3628 7.216 56.1355 7.216C55.8935 7.216 55.7102 7.139 55.5855 6.985C55.4608 6.831 55.3985 6.65133 55.3985 6.446C55.3985 6.24067 55.4498 6.072 55.5525 5.94C55.6552 5.80067 55.7982 5.676 55.9815 5.566C56.1648 5.44133 56.3995 5.34233 56.6855 5.269C56.9715 5.19567 57.2832 5.159 57.6205 5.159C57.9432 5.159 58.2292 5.19567 58.4785 5.269C58.7278 5.335 58.9405 5.456 59.1165 5.632C59.2925 5.80067 59.4062 6.00967 59.4575 6.259C59.5088 6.50833 59.5345 6.81267 59.5345 7.172V10.186C59.5345 10.3693 59.5565 10.5013 59.6005 10.582C59.6445 10.6553 59.7142 10.692 59.8095 10.692C59.8828 10.692 59.9525 10.6737 60.0185 10.637C60.0845 10.6003 60.1578 10.549 60.2385 10.483L60.3595 10.67C60.1982 10.7947 60.0295 10.8937 59.8535 10.967C59.6775 11.0403 59.4648 11.077 59.2155 11.077C58.9588 11.077 58.7535 11.0403 58.5995 10.967C58.4528 10.8937 58.3428 10.7873 58.2695 10.648C58.2035 10.5087 58.1668 10.3437 58.1595 10.153C57.9835 10.4463 57.7672 10.6737 57.5105 10.835C57.2538 10.9963 56.9458 11.077 56.5865 11.077ZM57.2465 10.461C57.4225 10.461 57.5838 10.4133 57.7305 10.318C57.8845 10.2227 58.0238 10.0797 58.1485 9.889V7.667C58.0752 7.777 57.9688 7.876 57.8295 7.964C57.6975 8.052 57.5545 8.14 57.4005 8.228C57.2465 8.316 57.0998 8.41867 56.9605 8.536C56.8285 8.646 56.7148 8.78533 56.6195 8.954C56.5315 9.11533 56.4875 9.32433 56.4875 9.581C56.4875 9.867 56.5572 10.087 56.6965 10.241C56.8358 10.3877 57.0192 10.461 57.2465 10.461ZM63.7116 5.324C64.269 5.324 64.7053 5.379 65.0206 5.489C65.3433 5.599 65.5706 5.753 65.7026 5.951C65.842 6.149 65.9116 6.37633 65.9116 6.633C65.9116 7.03633 65.699 7.381 65.2736 7.667C64.8483 7.953 64.1993 8.09233 63.3266 8.085C63.3266 8.085 63.3046 8.08133 63.2606 8.074C63.224 8.05933 63.1836 8.04833 63.1396 8.041C63.0956 8.02633 63.0736 8.019 63.0736 8.019C63.4623 8.01167 63.7593 7.96033 63.9646 7.865C64.1773 7.76967 64.3203 7.63033 64.3936 7.447C64.467 7.25633 64.5036 7.02533 64.5036 6.754C64.5036 6.52667 64.478 6.325 64.4266 6.149C64.3753 5.96567 64.2726 5.82267 64.1186 5.72C63.9646 5.61 63.741 5.555 63.4476 5.555C63.213 5.555 63.048 5.61 62.9526 5.72C62.8573 5.83 62.8096 6.039 62.8096 6.347V9.977C62.8096 10.2997 62.8573 10.5123 62.9526 10.615C63.0553 10.7177 63.2313 10.769 63.4806 10.769C63.8326 10.769 64.1003 10.7067 64.2836 10.582C64.467 10.4573 64.5916 10.296 64.6576 10.098C64.731 9.9 64.7676 9.68733 64.7676 9.46C64.7676 8.998 64.6503 8.67533 64.4156 8.492C64.1883 8.30867 63.8656 8.217 63.4476 8.217H62.0396C62.0396 8.217 62.0396 8.184 62.0396 8.118C62.0396 8.052 62.0396 8.019 62.0396 8.019H63.5466L63.7116 8.041C64.3203 8.041 64.808 8.096 65.1746 8.206C65.5413 8.30867 65.8016 8.46633 65.9556 8.679C66.117 8.88433 66.1976 9.141 66.1976 9.449C66.1976 9.74967 66.1206 10.0173 65.9666 10.252C65.82 10.4867 65.5743 10.67 65.2296 10.802C64.885 10.934 64.4193 11 63.8326 11C63.598 11 63.3303 10.9927 63.0296 10.978C62.7363 10.9633 62.432 10.956 62.1166 10.956C61.8526 10.956 61.5813 10.9633 61.3026 10.978C61.024 10.9853 60.815 10.9927 60.6756 11V10.769C60.947 10.769 61.1376 10.714 61.2476 10.604C61.365 10.494 61.4236 10.285 61.4236 9.977V6.347C61.4236 6.039 61.365 5.83 61.2476 5.72C61.1376 5.61 60.947 5.555 60.6756 5.555V5.324C60.8076 5.33133 61.0093 5.34233 61.2806 5.357C61.552 5.36433 61.816 5.368 62.0726 5.368C62.3806 5.368 62.6776 5.36067 62.9636 5.346C63.2496 5.33133 63.499 5.324 63.7116 5.324ZM71.8676 5.159C72.1976 5.159 72.4323 5.236 72.5716 5.39C72.7183 5.544 72.7916 5.731 72.7916 5.951C72.7916 6.17833 72.722 6.36167 72.5826 6.501C72.4506 6.633 72.2746 6.699 72.0546 6.699C71.9153 6.699 71.7833 6.67333 71.6586 6.622C71.5413 6.56333 71.4423 6.47533 71.3616 6.358C71.281 6.24067 71.2406 6.09767 71.2406 5.929C71.2406 5.85567 71.259 5.77867 71.2956 5.698C71.3396 5.61733 71.4093 5.55133 71.5046 5.5C71.3506 5.52933 71.2296 5.59533 71.1416 5.698C71.061 5.79333 70.9876 5.93267 70.9216 6.116C70.863 6.29933 70.7896 6.53033 70.7016 6.809C70.6356 7.007 70.5623 7.194 70.4816 7.37C70.401 7.546 70.2873 7.69267 70.1406 7.81C69.994 7.92 69.7886 7.997 69.5246 8.041L69.5906 7.964C70.104 7.92 70.5366 7.953 70.8886 8.063C71.2406 8.173 71.512 8.36 71.7026 8.624C71.8493 8.822 71.963 9.06033 72.0436 9.339C72.1243 9.61767 72.2233 9.89267 72.3406 10.164C72.4213 10.3473 72.5056 10.4903 72.5936 10.593C72.689 10.6883 72.8356 10.747 73.0336 10.769V11C72.9016 11.022 72.7696 11.0403 72.6376 11.055C72.513 11.0697 72.392 11.077 72.2746 11.077C71.886 11.077 71.5816 10.9963 71.3616 10.835C71.149 10.6663 70.9986 10.4097 70.9106 10.065C70.8813 9.955 70.841 9.812 70.7896 9.636C70.7383 9.45267 70.676 9.26933 70.6026 9.086C70.5293 8.90267 70.4376 8.745 70.3276 8.613C70.1956 8.437 70.0196 8.316 69.7996 8.25C69.587 8.184 69.312 8.15833 68.9746 8.173V7.986C69.3413 7.964 69.62 7.90167 69.8106 7.799C70.0086 7.69633 70.159 7.546 70.2616 7.348C70.3643 7.15 70.4596 6.908 70.5476 6.622C70.621 6.358 70.7016 6.116 70.7896 5.896C70.8776 5.676 71.006 5.5 71.1746 5.368C71.3433 5.22867 71.5743 5.159 71.8676 5.159ZM69.7006 5.324V5.555C69.4513 5.555 69.2753 5.61 69.1726 5.72C69.07 5.83 69.0186 6.039 69.0186 6.347V9.977C69.0186 10.285 69.07 10.494 69.1726 10.604C69.2753 10.714 69.4513 10.769 69.7006 10.769V11C69.5613 10.9927 69.3596 10.9853 69.0956 10.978C68.8316 10.9633 68.564 10.956 68.2926 10.956C68.036 10.956 67.7683 10.9633 67.4896 10.978C67.2183 10.9853 67.0166 10.9927 66.8846 11V10.769C67.156 10.769 67.3466 10.714 67.4566 10.604C67.574 10.494 67.6326 10.285 67.6326 9.977V6.347C67.6326 6.039 67.574 5.83 67.4566 5.72C67.3466 5.61 67.156 5.555 66.8846 5.555V5.324C67.024 5.33133 67.233 5.34233 67.5116 5.357C67.7976 5.36433 68.0726 5.368 68.3366 5.368C68.6006 5.368 68.861 5.36433 69.1176 5.357C69.3743 5.34233 69.5686 5.33133 69.7006 5.324ZM75.0093 11.077C74.694 11.077 74.4263 11.0183 74.2063 10.901C73.9863 10.7763 73.8213 10.6113 73.7113 10.406C73.6013 10.1933 73.5463 9.95867 73.5463 9.702C73.5463 9.38667 73.6197 9.13 73.7663 8.932C73.913 8.72667 74.1 8.56533 74.3273 8.448C74.562 8.32333 74.8077 8.22067 75.0643 8.14C75.321 8.052 75.563 7.97133 75.7903 7.898C76.0177 7.81733 76.2047 7.72567 76.3513 7.623C76.498 7.52033 76.5713 7.38467 76.5713 7.216V6.413C76.5713 6.17833 76.5347 5.98767 76.4613 5.841C76.3953 5.687 76.2927 5.57333 76.1533 5.5C76.0213 5.41933 75.8527 5.379 75.6473 5.379C75.4933 5.379 75.332 5.401 75.1633 5.445C74.9947 5.489 74.8553 5.57333 74.7453 5.698C74.936 5.74933 75.0827 5.84467 75.1853 5.984C75.2953 6.12333 75.3503 6.292 75.3503 6.49C75.3503 6.71733 75.2733 6.897 75.1193 7.029C74.9727 7.15367 74.7857 7.216 74.5583 7.216C74.3163 7.216 74.133 7.139 74.0083 6.985C73.8837 6.831 73.8213 6.65133 73.8213 6.446C73.8213 6.24067 73.8727 6.072 73.9753 5.94C74.078 5.80067 74.221 5.676 74.4043 5.566C74.5877 5.44133 74.8223 5.34233 75.1083 5.269C75.3943 5.19567 75.706 5.159 76.0433 5.159C76.366 5.159 76.652 5.19567 76.9013 5.269C77.1507 5.335 77.3633 5.456 77.5393 5.632C77.7153 5.80067 77.829 6.00967 77.8803 6.259C77.9317 6.50833 77.9573 6.81267 77.9573 7.172V10.186C77.9573 10.3693 77.9793 10.5013 78.0233 10.582C78.0673 10.6553 78.137 10.692 78.2323 10.692C78.3057 10.692 78.3753 10.6737 78.4413 10.637C78.5073 10.6003 78.5807 10.549 78.6613 10.483L78.7823 10.67C78.621 10.7947 78.4523 10.8937 78.2763 10.967C78.1003 11.0403 77.8877 11.077 77.6383 11.077C77.3817 11.077 77.1763 11.0403 77.0223 10.967C76.8757 10.8937 76.7657 10.7873 76.6923 10.648C76.6263 10.5087 76.5897 10.3437 76.5823 10.153C76.4063 10.4463 76.19 10.6737 75.9333 10.835C75.6767 10.9963 75.3687 11.077 75.0093 11.077ZM75.6693 10.461C75.8453 10.461 76.0067 10.4133 76.1533 10.318C76.3073 10.2227 76.4467 10.0797 76.5713 9.889V7.667C76.498 7.777 76.3917 7.876 76.2523 7.964C76.1203 8.052 75.9773 8.14 75.8233 8.228C75.6693 8.316 75.5227 8.41867 75.3833 8.536C75.2513 8.646 75.1377 8.78533 75.0423 8.954C74.9543 9.11533 74.9103 9.32433 74.9103 9.581C74.9103 9.867 74.98 10.087 75.1193 10.241C75.2587 10.3877 75.442 10.461 75.6693 10.461ZM36.633 17.324V17.555C36.3617 17.555 36.1673 17.61 36.05 17.72C35.94 17.83 35.885 18.039 35.885 18.347V21.977C35.885 22.285 35.9473 22.494 36.072 22.604C36.1967 22.714 36.435 22.769 36.787 22.769C36.7577 23.0257 36.7357 23.2713 36.721 23.506C36.7137 23.748 36.71 23.9313 36.71 24.056C36.71 24.188 36.7137 24.3127 36.721 24.43C36.7283 24.5547 36.7357 24.6573 36.743 24.738H36.49C36.4313 24.3053 36.347 23.957 36.237 23.693C36.127 23.4363 35.962 23.2493 35.742 23.132C35.5293 23.022 35.2323 22.967 34.851 22.967C34.6823 22.967 34.532 22.9707 34.4 22.978C34.268 22.978 34.1323 22.9817 33.993 22.989C33.861 22.9963 33.6997 23 33.509 23C33.179 23 32.8783 22.9927 32.607 22.978C32.343 22.9633 32.0533 22.956 31.738 22.956C31.4667 22.956 31.1917 22.9633 30.913 22.978C30.6343 22.9853 30.4253 22.9927 30.286 23V22.769C30.5573 22.769 30.748 22.714 30.858 22.604C30.9753 22.494 31.034 22.285 31.034 21.977V18.358C31.034 18.0427 30.9753 17.83 30.858 17.72C30.748 17.61 30.5573 17.555 30.286 17.555V17.324C30.418 17.3313 30.6197 17.3423 30.891 17.357C31.1697 17.3643 31.4373 17.368 31.694 17.368C31.958 17.368 32.2183 17.3643 32.475 17.357C32.7317 17.3423 32.926 17.3313 33.058 17.324V17.555C32.8233 17.555 32.6583 17.61 32.563 17.72C32.4677 17.83 32.42 18.039 32.42 18.347V21.977C32.42 22.285 32.4677 22.494 32.563 22.604C32.6583 22.714 32.8233 22.769 33.058 22.769H33.861C34.0957 22.769 34.2607 22.714 34.356 22.604C34.4513 22.494 34.499 22.285 34.499 21.977V18.358C34.499 18.0427 34.4513 17.83 34.356 17.72C34.2607 17.61 34.0957 17.555 33.861 17.555V17.324C33.9857 17.3313 34.169 17.3423 34.411 17.357C34.6603 17.3643 34.917 17.368 35.181 17.368C35.445 17.368 35.7163 17.3643 35.995 17.357C36.281 17.3423 36.4937 17.3313 36.633 17.324ZM40.3259 17.324C40.8832 17.324 41.3196 17.379 41.6349 17.489C41.9576 17.599 42.1849 17.753 42.3169 17.951C42.4562 18.149 42.5259 18.3763 42.5259 18.633C42.5259 19.0363 42.3132 19.381 41.8879 19.667C41.4626 19.953 40.8136 20.0923 39.9409 20.085C39.9409 20.085 39.9189 20.0813 39.8749 20.074C39.8382 20.0593 39.7979 20.0483 39.7539 20.041C39.7099 20.0263 39.6879 20.019 39.6879 20.019C40.0766 20.0117 40.3736 19.9603 40.5789 19.865C40.7916 19.7697 40.9346 19.6303 41.0079 19.447C41.0812 19.2563 41.1179 19.0253 41.1179 18.754C41.1179 18.5267 41.0922 18.325 41.0409 18.149C40.9896 17.9657 40.8869 17.8227 40.7329 17.72C40.5789 17.61 40.3552 17.555 40.0619 17.555C39.8272 17.555 39.6622 17.61 39.5669 17.72C39.4716 17.83 39.4239 18.039 39.4239 18.347V21.977C39.4239 22.2997 39.4716 22.5123 39.5669 22.615C39.6696 22.7177 39.8456 22.769 40.0949 22.769C40.4469 22.769 40.7146 22.7067 40.8979 22.582C41.0812 22.4573 41.2059 22.296 41.2719 22.098C41.3452 21.9 41.3819 21.6873 41.3819 21.46C41.3819 20.998 41.2646 20.6753 41.0299 20.492C40.8026 20.3087 40.4799 20.217 40.0619 20.217H38.6539C38.6539 20.217 38.6539 20.184 38.6539 20.118C38.6539 20.052 38.6539 20.019 38.6539 20.019H40.1609L40.3259 20.041C40.9346 20.041 41.4222 20.096 41.7889 20.206C42.1556 20.3087 42.4159 20.4663 42.5699 20.679C42.7312 20.8843 42.8119 21.141 42.8119 21.449C42.8119 21.7497 42.7349 22.0173 42.5809 22.252C42.4342 22.4867 42.1886 22.67 41.8439 22.802C41.4992 22.934 41.0336 23 40.4469 23C40.2122 23 39.9446 22.9927 39.6439 22.978C39.3506 22.9633 39.0462 22.956 38.7309 22.956C38.4669 22.956 38.1956 22.9633 37.9169 22.978C37.6382 22.9853 37.4292 22.9927 37.2899 23V22.769C37.5612 22.769 37.7519 22.714 37.8619 22.604C37.9792 22.494 38.0379 22.285 38.0379 21.977V18.347C38.0379 18.039 37.9792 17.83 37.8619 17.72C37.7519 17.61 37.5612 17.555 37.2899 17.555V17.324C37.4219 17.3313 37.6236 17.3423 37.8949 17.357C38.1662 17.3643 38.4302 17.368 38.6869 17.368C38.9949 17.368 39.2919 17.3607 39.5779 17.346C39.8639 17.3313 40.1132 17.324 40.3259 17.324ZM46.2709 17.159C46.9162 17.159 47.4222 17.3533 47.7889 17.742C48.1556 18.1307 48.3389 18.7503 48.3389 19.601H44.6319L44.6209 19.392H47.0629C47.0776 19.0327 47.0556 18.7027 46.9969 18.402C46.9382 18.094 46.8429 17.8483 46.7109 17.665C46.5862 17.4817 46.4212 17.39 46.2159 17.39C45.9372 17.39 45.6952 17.555 45.4899 17.885C45.2846 18.2077 45.1562 18.7393 45.1049 19.48L45.1489 19.546C45.1342 19.6413 45.1232 19.744 45.1159 19.854C45.1159 19.964 45.1159 20.074 45.1159 20.184C45.1159 20.69 45.1892 21.108 45.3359 21.438C45.4826 21.768 45.6732 22.01 45.9079 22.164C46.1426 22.318 46.3846 22.395 46.6339 22.395C46.8026 22.395 46.9749 22.3693 47.1509 22.318C47.3269 22.2667 47.4992 22.1713 47.6679 22.032C47.8366 21.8927 47.9906 21.6947 48.1299 21.438L48.3389 21.526C48.2582 21.7827 48.1226 22.0393 47.9319 22.296C47.7486 22.5453 47.5102 22.7507 47.2169 22.912C46.9236 23.0733 46.5789 23.154 46.1829 23.154C45.6842 23.154 45.2442 23.044 44.8629 22.824C44.4816 22.604 44.1846 22.2777 43.9719 21.845C43.7592 21.405 43.6529 20.8697 43.6529 20.239C43.6529 19.5717 43.7629 19.0107 43.9829 18.556C44.2102 18.1013 44.5219 17.7567 44.9179 17.522C45.3139 17.28 45.7649 17.159 46.2709 17.159ZM54.7616 17.324C54.7323 17.6173 54.7103 17.8997 54.6956 18.171C54.6883 18.435 54.6846 18.6367 54.6846 18.776C54.6846 18.9227 54.6883 19.062 54.6956 19.194C54.7029 19.3187 54.7103 19.4213 54.7176 19.502H54.4646C54.3913 18.9813 54.2849 18.5817 54.1456 18.303C54.0063 18.017 53.8376 17.8227 53.6396 17.72C53.4489 17.61 53.2363 17.555 53.0016 17.555H52.6166V21.867C52.6166 22.2263 52.7119 22.4683 52.9026 22.593C53.0933 22.7103 53.3573 22.769 53.6946 22.769V23C53.5113 22.9927 53.2583 22.9853 52.9356 22.978C52.6203 22.9633 52.2829 22.956 51.9236 22.956C51.5643 22.956 51.2233 22.9633 50.9006 22.978C50.5779 22.9853 50.3286 22.9927 50.1526 23V22.769C50.4899 22.769 50.7539 22.7177 50.9446 22.615C51.1353 22.505 51.2306 22.2703 51.2306 21.911V17.555H50.7796C50.5376 17.555 50.3249 17.61 50.1416 17.72C49.9583 17.83 49.8006 18.028 49.6686 18.314C49.5439 18.5927 49.4449 18.9923 49.3716 19.513H49.1186C49.1333 19.425 49.1406 19.3187 49.1406 19.194C49.1479 19.062 49.1516 18.9263 49.1516 18.787C49.1516 18.6477 49.1443 18.446 49.1296 18.182C49.1223 17.9107 49.1039 17.6283 49.0746 17.335H50.2076C50.4276 17.335 50.6879 17.3423 50.9886 17.357C51.2966 17.3643 51.6046 17.368 51.9126 17.368C52.2206 17.368 52.5286 17.3607 52.8366 17.346C53.1446 17.3313 53.4086 17.324 53.6286 17.324H54.7616ZM58.1523 17.159C58.6583 17.159 59.1056 17.2617 59.4943 17.467C59.8903 17.665 60.2019 17.984 60.4293 18.424C60.6639 18.864 60.7813 19.4433 60.7813 20.162C60.7813 20.8807 60.6639 21.46 60.4293 21.9C60.2019 22.34 59.8903 22.659 59.4943 22.857C59.1056 23.055 58.6583 23.154 58.1523 23.154C57.6463 23.154 57.1953 23.055 56.7993 22.857C56.4033 22.659 56.0916 22.34 55.8643 21.9C55.6369 21.46 55.5233 20.8807 55.5233 20.162C55.5233 19.4433 55.6369 18.864 55.8643 18.424C56.0916 17.984 56.4033 17.665 56.7993 17.467C57.1953 17.2617 57.6463 17.159 58.1523 17.159ZM58.1523 17.379C57.8076 17.379 57.5253 17.599 57.3053 18.039C57.0926 18.4717 56.9863 19.1793 56.9863 20.162C56.9863 21.1447 57.0926 21.8523 57.3053 22.285C57.5253 22.7177 57.8076 22.934 58.1523 22.934C58.4896 22.934 58.7683 22.7177 58.9883 22.285C59.2083 21.8523 59.3183 21.1447 59.3183 20.162C59.3183 19.1793 59.2083 18.4717 58.9883 18.039C58.7683 17.599 58.4896 17.379 58.1523 17.379ZM64.5388 17.324C65.0961 17.324 65.5325 17.379 65.8478 17.489C66.1705 17.599 66.3978 17.753 66.5298 17.951C66.6691 18.149 66.7388 18.3763 66.7388 18.633C66.7388 19.0363 66.5261 19.381 66.1008 19.667C65.6755 19.953 65.0265 20.0923 64.1538 20.085C64.1538 20.085 64.1318 20.0813 64.0878 20.074C64.0511 20.0593 64.0108 20.0483 63.9668 20.041C63.9228 20.0263 63.9008 20.019 63.9008 20.019C64.2895 20.0117 64.5865 19.9603 64.7918 19.865C65.0045 19.7697 65.1475 19.6303 65.2208 19.447C65.2941 19.2563 65.3308 19.0253 65.3308 18.754C65.3308 18.5267 65.3051 18.325 65.2538 18.149C65.2025 17.9657 65.0998 17.8227 64.9458 17.72C64.7918 17.61 64.5681 17.555 64.2748 17.555C64.0401 17.555 63.8751 17.61 63.7798 17.72C63.6845 17.83 63.6368 18.039 63.6368 18.347V21.977C63.6368 22.2997 63.6845 22.5123 63.7798 22.615C63.8825 22.7177 64.0585 22.769 64.3078 22.769C64.6598 22.769 64.9275 22.7067 65.1108 22.582C65.2941 22.4573 65.4188 22.296 65.4848 22.098C65.5581 21.9 65.5948 21.6873 65.5948 21.46C65.5948 20.998 65.4775 20.6753 65.2428 20.492C65.0155 20.3087 64.6928 20.217 64.2748 20.217H62.8668C62.8668 20.217 62.8668 20.184 62.8668 20.118C62.8668 20.052 62.8668 20.019 62.8668 20.019H64.3738L64.5388 20.041C65.1475 20.041 65.6351 20.096 66.0018 20.206C66.3685 20.3087 66.6288 20.4663 66.7828 20.679C66.9441 20.8843 67.0248 21.141 67.0248 21.449C67.0248 21.7497 66.9478 22.0173 66.7938 22.252C66.6471 22.4867 66.4015 22.67 66.0568 22.802C65.7121 22.934 65.2465 23 64.6598 23C64.4251 23 64.1575 22.9927 63.8568 22.978C63.5635 22.9633 63.2591 22.956 62.9438 22.956C62.6798 22.956 62.4085 22.9633 62.1298 22.978C61.8511 22.9853 61.6421 22.9927 61.5028 23V22.769C61.7741 22.769 61.9648 22.714 62.0748 22.604C62.1921 22.494 62.2508 22.285 62.2508 21.977V18.347C62.2508 18.039 62.1921 17.83 62.0748 17.72C61.9648 17.61 61.7741 17.555 61.5028 17.555V17.324C61.6348 17.3313 61.8365 17.3423 62.1078 17.357C62.3791 17.3643 62.6431 17.368 62.8998 17.368C63.2078 17.368 63.5048 17.3607 63.7908 17.346C64.0768 17.3313 64.3261 17.324 64.5388 17.324Z" fill="url(#paint0_linear_86_373)"/>
<circle cx="10.5" cy="12.5" r="10.5" fill="url(#paint1_linear_86_373)"/>
<defs>
<linearGradient id="paint0_linear_86_373" x1="62.4441" y1="-2.39319" x2="23.1656" y2="10.1572" gradientUnits="userSpaceOnUse">
<stop offset="0.279902" stop-color="#C38B34"/>
<stop offset="0.803825" stop-color="#ECC47E"/>
</linearGradient>
<linearGradient id="paint1_linear_86_373" x1="15.3659" y1="2" x2="-1.56611" y2="3.34944" gradientUnits="userSpaceOnUse">
<stop stop-color="#C38B34"/>
<stop offset="1" stop-color="#ECC47E"/>
</linearGradient>
</defs>
</svg>
