<svg width="14" height="14" viewBox="0 0 14 14" fill="none" xmlns="http://www.w3.org/2000/svg">
<path d="M13.2968 12.1656L10.6957 9.56446C11.4889 8.53039 11.9181 7.26315 11.9165 5.9599C11.9165 4.36777 11.2964 2.87148 10.1707 1.74576C9.61862 1.19057 8.96188 0.750415 8.23851 0.450759C7.51515 0.151102 6.73954 -0.00209928 5.95657 2.17253e-05C4.36484 2.17253e-05 2.86855 0.620032 1.74243 1.74576C-0.580809 4.06939 -0.580809 7.85041 1.74243 10.174C2.29452 10.7292 2.95125 11.1694 3.67462 11.4691C4.39798 11.7687 5.1736 11.9219 5.95657 11.9198C7.2776 11.9198 8.52925 11.4871 9.56154 10.6986L12.1627 13.3002C12.3191 13.4566 12.5244 13.5352 12.7298 13.5352C12.9351 13.5352 13.1404 13.4566 13.2968 13.3002C13.3714 13.2257 13.4305 13.1372 13.4708 13.0399C13.5111 12.9426 13.5319 12.8383 13.5319 12.7329C13.5319 12.6275 13.5111 12.5232 13.4708 12.4259C13.4305 12.3285 13.3714 12.2401 13.2968 12.1656ZM2.87697 9.0399C1.17856 7.34149 1.17896 4.57831 2.87697 2.8799C3.28057 2.47428 3.76059 2.15272 4.28926 1.93381C4.81794 1.71491 5.38477 1.60301 5.95697 1.60459C6.52911 1.60302 7.09589 1.71492 7.62449 1.93383C8.1531 2.15273 8.63305 2.47429 9.03657 2.8799C9.4423 3.28344 9.76396 3.76344 9.98294 4.29212C10.2019 4.8208 10.3139 5.38767 10.3123 5.9599C10.3123 7.12332 9.85911 8.21696 9.03657 9.0399C8.21404 9.86284 7.1204 10.3152 5.95657 10.3152C4.79355 10.3152 3.69951 9.86204 2.87657 9.0399H2.87697Z" fill="url(#paint0_linear_358_692)"/>
<defs>
<linearGradient id="paint0_linear_358_692" x1="8.44288" y1="-1.19971" x2="-2.52043" y2="0.618722" gradientUnits="userSpaceOnUse">
<stop offset="0.279902" stop-color="#C38B34"/>
<stop offset="0.803825" stop-color="#ECC47E"/>
</linearGradient>
</defs>
</svg>
