<svg width="11" height="11" viewBox="0 0 11 11" fill="none" xmlns="http://www.w3.org/2000/svg">
<path fill-rule="evenodd" clip-rule="evenodd" d="M10.7991 9.67561C10.7261 9.74842 10.638 9.84154 10.5446 9.94002C10.3115 10.1874 10.0204 10.4949 9.8379 10.6196C8.87776 11.2756 7.59325 10.9617 6.68466 10.5831C5.48607 10.0837 4.18113 9.16321 3.00943 7.99137C1.83664 6.81944 0.916211 5.51409 0.416806 4.31619C0.0386814 3.4074 -0.275914 2.12263 0.380283 1.16228C0.504892 0.979662 0.813086 0.688957 1.06011 0.455444C1.15894 0.36233 1.25132 0.274352 1.32437 0.201541C1.45406 0.0725011 1.62956 6.10352e-05 1.81251 6.10352e-05C1.99545 6.10352e-05 2.17096 0.0725011 2.30064 0.201541L4.06726 1.96764C4.19623 2.09732 4.26862 2.27278 4.26862 2.45567C4.26862 2.63856 4.19623 2.81402 4.06726 2.9437L3.58601 3.42398C3.42529 3.58353 3.32038 3.7907 3.2869 4.01468C3.25342 4.23865 3.29315 4.46745 3.40019 4.66703C4.06212 5.91635 5.08402 6.93807 6.33345 7.59979C6.53298 7.70679 6.76174 7.74648 6.98565 7.71294C7.20956 7.6794 7.41664 7.57444 7.57607 7.41367L8.05613 6.93337C8.18582 6.80433 8.36132 6.73189 8.54427 6.73189C8.72722 6.73189 8.90272 6.80433 9.03241 6.93337L10.7991 8.69977C10.9281 8.8294 11.0005 9.00483 11.0005 9.18769C11.0005 9.37055 10.9281 9.54598 10.7991 9.67561Z" fill="url(#paint0_linear_20_52)"/>
<defs>
<linearGradient id="paint0_linear_20_52" x1="6.86349" y1="-0.974933" x2="-2.0488" y2="0.503748" gradientUnits="userSpaceOnUse">
<stop offset="0.279902" stop-color="#C38B34"/>
<stop offset="0.803825" stop-color="#ECC47E"/>
</linearGradient>
</defs>
</svg>
